HIERARCHY
	ROOT Hips
	{
		OFFSET 0 0 0 
		CHANNELS 6 Xposition Yposition Zposition Zrotation Xrotation Yrotation
		JOINT LHipJoint
		{
			OFFSET 0 0 0 
			CHANNELS 3 Zrotation Xrotation Yrotation
			JOINT LeftUpLeg
			{
				OFFSET 0.0783705 -0.0912565 0.0336595 
				CHANNELS 3 Zrotation Xrotation Yrotation
				JOINT LeftLeg
				{
					OFFSET 0.117854 -0.323802 0 
					CHANNELS 3 Zrotation Xrotation Yrotation
					JOINT LeftFoot
					{
						OFFSET 0.135318 -0.371784 0 
						CHANNELS 3 Zrotation Xrotation Yrotation
						JOINT LeftToeBase
						{
							OFFSET 0.0102135 -0.028061 0.104268 
							CHANNELS 3 Zrotation Xrotation Yrotation
							End Site
							{
								OFFSET 0 -0 0.0542675
							}
						}
					}
				}
			}
		}
		JOINT RHipJoint
		{
			OFFSET 0 0 0 
			CHANNELS 3 Zrotation Xrotation Yrotation
			JOINT RightUpLeg
			{
				OFFSET -0.075711 -0.0912565 0.0336595 
				CHANNELS 3 Zrotation Xrotation Yrotation
				JOINT RightLeg
				{
					OFFSET -0.124412 -0.341819 0 
					CHANNELS 3 Zrotation Xrotation Yrotation
					JOINT RightFoot
					{
						OFFSET -0.135017 -0.370955 0 
						CHANNELS 3 Zrotation Xrotation Yrotation
						JOINT RightToeBase
						{
							OFFSET -0.009875 -0.0271315 0.111076 
							CHANNELS 3 Zrotation Xrotation Yrotation
							End Site
							{
								OFFSET -0 -0 0.0574575
							}
						}
					}
				}
			}
		}
		JOINT LowerBack
		{
			OFFSET 0 0 0 
			CHANNELS 3 Zrotation Xrotation Yrotation
			JOINT Spine
			{
				OFFSET -0.0007835 0.106437 -0.007921 
				CHANNELS 3 Zrotation Xrotation Yrotation
				JOINT Spine1
				{
					OFFSET 0.003049 0.106663 -0.0005215 
					CHANNELS 3 Zrotation Xrotation Yrotation
					JOINT Neck
					{
						OFFSET 0 0 0 
						CHANNELS 3 Zrotation Xrotation Yrotation
						JOINT Neck1
						{
							OFFSET -0.00252 0.089216 0.0066935 
							CHANNELS 3 Zrotation Xrotation Yrotation
							JOINT Head
							{
								OFFSET -9e-005 0.08844 -0.0166515 
								CHANNELS 3 Zrotation Xrotation Yrotation
								End Site
								{
									OFFSET 0.000367 0.0906245 -0.0063595
								}
							}
						}
					}
					JOINT LeftShoulder
					{
						OFFSET 0 0 0 
						CHANNELS 3 Zrotation Xrotation Yrotation
						JOINT LeftArm
						{
							OFFSET 0.1861 0.047094 -0.0271585 
							CHANNELS 3 Zrotation Xrotation Yrotation
							JOINT LeftForeArm
							{
								OFFSET 0.257301 -0 0 
								CHANNELS 3 Zrotation Xrotation Yrotation
								JOINT LeftHand
								{
									OFFSET 0.182226 -0 -0 
									CHANNELS 3 Zrotation Xrotation Yrotation
									JOINT LeftFingerBase
									{
										OFFSET 0 0 0 
										CHANNELS 3 Zrotation Xrotation Yrotation
										JOINT LFingers
										{
											OFFSET 0.028114 -0 0 
											CHANNELS 3 Zrotation Xrotation Yrotation
											End Site
											{
												OFFSET 0.022666 -0 0
											}
										}
									}
									JOINT LThumb
									{
										OFFSET 0 0 0 
										CHANNELS 3 Zrotation Xrotation Yrotation
										End Site
										{
											OFFSET 0.0230125 -0 0.0230125
										}
									}
								}
							}
						}
					}
					JOINT RightShoulder
					{
						OFFSET 0 0 0 
						CHANNELS 3 Zrotation Xrotation Yrotation
						JOINT RightArm
						{
							OFFSET -0.165127 0.0613395 -0.0234705 
							CHANNELS 3 Zrotation Xrotation Yrotation
							JOINT RightForeArm
							{
								OFFSET -0.266957 -0 0 
								CHANNELS 3 Zrotation Xrotation Yrotation
								JOINT RightHand
								{
									OFFSET -0.178239 -0 -0 
									CHANNELS 3 Zrotation Xrotation Yrotation
									JOINT RightFingerBase
									{
										OFFSET 0 0 0 
										CHANNELS 3 Zrotation Xrotation Yrotation
										JOINT RFingers
										{
											OFFSET -0.0428735 -0 0 
											CHANNELS 3 Zrotation Xrotation Yrotation
											End Site
											{
												OFFSET -0.034566 -0 0
											}
										}
									}
									JOINT RThumb
									{
										OFFSET 0 0 0 
										CHANNELS 3 Zrotation Xrotation Yrotation
										End Site
										{
											OFFSET -0.0350935 -0 0.0350935
										}
									}
								}
							}
						}
					}
				}
			}
		}
	}
MOTION
Frames:	17
Frame Time:	0.0166667
0.025805 0.852355 1.57479 1.78535 0.699339 -46.1268 -0 0 -0 -21.0896 -1.14295 -2.21204 -9.74085 46.4135 22.4816 7.49014 22.7524 -18.9899 -1.08975 -18.102 -6.8331 -0 0 -0 30.2743 -27.2869 8.71772 6.75344 40.5546 -18.1472 0.555538 -11.6131 4.87656 3.35353 30.3666 -12.3131 -0.286993 5.75948 -1.27835 3.88131 1.03326 -1.66367 4.30809 -2.03728 -0.835628 -7.25241 -7.96313 -1.03074 -0.269711 24.438 -0.44859 1.1491 8.99222 -1.01336 -0 0 -0 -96.5195 22.0645 4.45194 13.9954 -3.08715 -24.7642 -0 7.2769 -0 15.6658 6.67238 22.5048 -7.125 0 0 -9.14747 -1.31256 53.0962 -0 0 -0 83.5099 7.31127 -2.73263 -17.2906 -4.82624 30.9837 -0 6.4494 -0 -20.0082 2.47214 -6.75542 7.125 0 -0 6.13242 0.851316 -37.1267 
0.01818 0.854745 1.58552 1.29212 -0.815392 -45.9188 -0 0 -0 -21.7963 -0.839955 -2.41296 -10.9119 48.2585 24.0739 5.51523 18.5478 -18.2782 -0.76858 -15.3041 -5.71604 -0 0 -0 28.3945 -24.5275 6.90283 6.46757 39.8797 -17.7044 0.703773 -12.3298 5.53741 3.50591 30.9597 -12.612 -0.897908 6.47049 -1.43363 3.59752 1.38802 -1.91576 4.39019 -2.03721 -0.962308 -8.71332 -7.76585 -1.92799 0.966076 24.2864 -1.77021 1.58605 8.97502 -1.63189 -0 0 -0 -95.4509 24.1396 3.80628 13.5115 -2.86867 -23.8708 -0 5.351 -0 15.7769 6.82824 22.8217 -7.125 0 0 -8.9848 -1.34558 53.4476 -0 0 -0 83.4183 1.9891 -1.72104 -16.6849 -4.47209 29.8205 -0 13.6253 -0 -15.1062 -0.37419 1.38593 7.125 0 -0 10.5997 3.16811 -28.5471 
0.01106 0.85894 1.59326 0.877706 -0.604729 -45.7758 -0 0 -0 -20.9215 -2.67446 -3.55067 -12.3831 50.3124 26.0144 3.72812 14.8784 -16.1424 -0.407177 -11.2242 -4.14196 -0 0 -0 28.6331 -22.7618 6.34515 5.94218 38.5721 -16.8738 0.595507 -12.5654 5.03285 3.24395 29.9286 -12.095 -0.552241 6.3606 -1.51392 3.54576 1.43112 -2.00363 4.14155 -1.9379 -1.00978 -8.58709 -8.02326 -2.72116 1.06493 24.214 -2.89576 1.39255 9.04445 -2.1304 -0 0 -0 -94.6721 23.2774 3.24672 13.4312 -2.83337 -23.723 -0 6.0845 -0 15.6287 6.83126 23.0348 -7.125 0 0 -9.10827 -1.39606 53.6409 -0 0 -0 84.0238 2.47788 -1.37859 -17.0391 -4.67734 30.4998 -0 11.8223 -0 -16.4525 -0.25797 0.873509 7.125 0 -0 9.38322 2.70429 -29.0649 
0.00423 0.86261 1.60022 0.81251 -0.843176 -45.5521 -0 0 -0 -20.7598 -4.54971 -4.41654 -13.825 52.0904 27.8644 2.10714 10.3704 -14.7367 -0.715394 -14.7818 -5.51123 -0 0 -0 28.254 -20.952 5.68833 5.37496 37.0505 -15.9486 0.476857 -12.7073 4.49071 2.9679 28.778 -11.5318 -0.86309 6.25748 -1.56764 3.39393 1.53547 -2.10125 4.15673 -1.7597 -1.0605 -9.27591 -7.6172 -3.60152 1.96514 23.4604 -4.24508 1.58447 8.7958 -2.71111 -0 0 -0 -94.2603 21.9604 2.99876 13.6658 -2.93748 -24.1554 -0 6.6766 -0 15.8143 7.0711 23.4904 -7.125 0 0 -8.84415 -1.43648 54.1524 -0 0 -0 84.6757 1.79014 -0.763473 -17.1247 -4.72773 30.6642 -0 12.0393 -0 -16.67 -0.556407 1.85759 7.125 0 -0 9.12677 2.8067 -28.0487 
-0.002675 0.86729 1.60694 0.993121 -0.962976 -45.9953 -0 0 -0 -20.7972 -6.52993 -5.02438 -14.8678 53.2541 29.1757 1.07589 7.08595 -12.2203 -0.689019 -14.5142 -5.40674 -0 0 -0 28.026 -19.2775 5.7519 4.9042 35.6884 -15.1547 0.422305 -12.9071 4.24741 2.98573 28.8542 -11.5688 -1.51743 5.9997 -1.44602 3.29881 1.53278 -1.98111 4.4073 -1.60965 -1.00019 -9.44377 -7.4634 -4.26631 2.16938 22.8742 -5.19046 1.5268 8.61899 -3.13383 -0 0 -0 -93.8966 21.0023 2.75624 13.8253 -3.00929 -24.4497 -0 6.3801 -0 15.9383 7.25742 23.8623 -7.125 0 0 -8.65522 -1.46994 54.5658 -0 0 -0 84.7752 4.03769 -1.07316 -17.5396 -4.97674 31.4651 -0 10.253 -0 -16.9757 -0.461439 1.51135 7.125 0 -0 8.86432 2.66423 -28.4034 
-0.009415 0.87045 1.61353 1.0149 -0.856372 -46.588 -0 0 -0 -20.394 -8.5257 -4.96207 -15.524 53.9401 29.9909 0.280903 3.41879 -10.222 -1.27947 -19.5381 -7.42111 -0 0 -0 28.2088 -17.4908 6.11209 4.42028 34.1796 -14.3098 0.318967 -12.8848 3.77416 2.93696 28.6447 -11.4674 -1.73311 5.74821 -1.17089 3.12733 1.44582 -1.62572 4.31905 -1.59014 -0.819616 -9.62817 -7.16235 -5.05253 2.74977 22.2365 -6.3928 1.56354 8.42256 -3.64598 -0 0 -0 -92.974 21.416 2.57081 13.9086 -3.04736 -24.6038 -0 4.4504 -0 16.2152 7.42695 23.9642 -7.125 0 0 -8.34685 -1.4414 54.7286 -0 0 -0 85.2564 5.26682 -1.36356 -17.7829 -5.12643 31.9372 -0 9.711 -0 -16.7165 -0.791563 2.63375 7.125 0 -0 9.03544 2.91833 -27.2469 
-0.015445 0.87422 1.62108 0.543391 -1.02672 -46.812 -0 0 -0 -20.0175 -9.70504 -5.60669 -15.8564 54.2751 30.4012 -0.0566941 0.951529 -7.88089 -1.3175 -19.8108 -7.53405 -0 0 -0 28.3867 -15.0526 6.05676 3.89938 32.4114 -13.361 0.120685 -12.942 2.86063 2.90732 28.5162 -11.4056 -1.35976 5.83611 -1.05949 2.96479 1.59128 -1.46136 3.92526 -1.51807 -0.74136 -9.99611 -6.93086 -5.67813 3.20953 21.7946 -7.31136 1.64053 8.30401 -4.05862 -0 0 -0 -92.5461 20.9755 2.66512 14.3599 -3.25767 -25.4403 -0 3.0638 -0 16.0667 7.43358 24.1905 -7.125 0 0 -8.46686 -1.49416 54.9353 -0 0 -0 85.5604 6.84363 -1.77868 -18.1517 -5.35852 32.6559 -0 9.4292 -0 -16.1308 -0.756512 2.61373 7.125 0 -0 9.57543 3.09034 -27.2777 
-0.02169 0.87704 1.62714 0.50033 -0.707063 -47.8714 -0 0 -0 -19.2658 -11.7324 -5.37369 -15.7467 54.1655 30.2661 -0.201516 -1.08202 -6.06278 -1.61355 -21.7927 -8.36764 -0 0 -0 28.964 -13.2771 7.0847 3.54697 31.1166 -12.6917 -0.044123 -12.9546 2.08396 2.80327 28.0574 -11.1859 -1.46918 5.73543 -0.809653 2.85613 1.44912 -1.13206 3.85228 -1.63482 -0.571933 -9.74322 -7.17743 -5.9886 3.21429 21.3157 -7.72785 1.53137 8.19522 -4.22037 -0 0 -0 -91.9036 20.8589 2.88407 14.7233 -3.43284 -26.1168 -0 1.2706 -0 16.2435 7.59227 24.3937 -7.125 0 0 -8.24661 -1.49202 55.1849 -0 0 -0 85.9427 10.0949 -2.52136 -18.6155 -5.65959 33.5659 -0 9.6947 -0 -16.5406 -0.466824 1.57155 7.125 0 -0 9.26303 2.79665 -28.3451 
-0.027555 0.878225 1.63393 0.93555 -1.14671 -48.4922 -0 0 -0 -19.8005 -13.0902 -5.44418 -15.1288 53.5311 29.5008 -0.232758 -3.77668 -3.94047 -1.53176 -21.2682 -8.1447 -0 0 -0 28.431 -11.8133 7.94605 3.38242 30.4806 -12.3703 -0.196933 -13.3714 1.45289 2.84288 28.2333 -11.2699 -1.9822 5.34273 -0.57992 2.41814 1.53323 -0.857407 3.6578 -1.34996 -0.437121 -10.116 -7.23214 -6.39932 3.90762 20.605 -8.33664 1.73544 8.03982 -4.458 -0 0 -0 -91.1099 21.4393 2.9516 15.199 -3.67024 -27.0069 0 -0.5353 0 16.4595 7.65038 24.2562 -7.125 0 0 -8.04102 -1.43981 55.0852 -0 0 -0 86.3725 10.7001 -2.18216 -18.5114 -5.59119 33.3612 -0 11.6088 -0 -15.454 -1.00249 3.62106 7.125 0 -0 10.1229 3.47294 -26.2583 
-0.033255 0.880425 1.64 1.01069 -1.075 -48.9294 -0 0 -0 -19.4578 -14.8995 -5.97975 -14.4055 52.7498 28.5967 -0.187951 -5.28643 -2.96964 -0.799636 -15.6 -5.83256 -0 0 -0 28.5406 -10.708 8.57328 3.3137 30.2086 -12.2342 -0.350541 -13.9169 0.888277 2.1026 24.6348 -9.60796 -2.14163 5.45502 -0.4636 2.32906 1.3368 -0.709693 3.65104 -1.62567 -0.354743 -10.3704 -7.29456 -6.64089 4.19536 20.1742 -8.65873 1.82805 7.9484 -4.59504 -0 0 -0 -90.748 21.3841 3.36682 15.7435 -3.95322 -28.0317 0 -1.1444 0 16.2845 7.44822 23.9288 -7.125 0 0 -8.27953 -1.42619 54.7057 -0 0 -0 86.5118 13.5622 -2.68389 -19.0574 -5.95619 34.4398 -0 11.6547 -0 -14.0009 -0.81816 3.27753 7.125 0 -0 11.4808 3.86491 -26.6404 
-0.03818 0.88047 1.64652 1.16886 -1.37147 -49.2149 -0 0 -0 -19.6283 -16.259 -6.46094 -13.4476 51.6451 27.3845 -0.118251 -6.69206 -2.23302 -0.886081 -16.3916 -6.14611 -0 0 -0 28.1842 -9.8382 8.79768 3.29066 30.1163 -12.1883 -0.411764 -14.4424 0.769932 2.7466 27.8027 -11.0649 -2.07975 5.49967 -0.389694 1.86253 1.38102 -0.615279 3.12591 -1.61868 -0.307623 -10.2575 -7.72484 -6.87448 4.24352 19.8883 -8.93668 1.76831 7.93916 -4.69934 -0 0 -0 -89.7714 21.9742 3.40212 16.1668 -4.18185 -28.8333 0 -2.0911 0 16.1652 7.42764 24.0356 -7.125 0 0 -8.38806 -1.45844 54.7932 -0 0 -0 87.0355 15.5768 -2.89315 -19.4468 -6.22558 35.2155 -0 12.512 -0 -13.1455 -1.09217 4.66575 7.125 0 -0 12.1394 4.42691 -25.26 
-0.043015 0.879845 1.65333 1.0156 -1.28395 -49.5858 -0 0 -0 -19.2364 -17.5783 -6.97364 -12.3928 50.325 26.027 -0.119698 -7.79191 -2.29712 -0.692911 -14.5541 -5.42229 -0 0 -0 28.316 -9.10885 9.04966 3.34433 30.3301 -12.2949 -0.48295 -15.1563 0.683268 2.51117 26.7062 -10.5508 -1.73379 5.75518 -0.377 1.7855 1.27953 -0.582045 2.85411 -1.87258 -0.287353 -10.9443 -7.55172 -7.02685 4.91288 19.1982 -9.15538 2.09178 7.75868 -4.78662 -0 0 -0 -89.3462 21.9716 3.52307 16.5351 -4.38697 -29.5345 0 -2.3166 0 16.3136 7.41753 23.8019 -7.125 0 0 -8.26942 -1.40536 54.5784 -0 0 -0 87.1329 16.9523 -3.10651 -19.7738 -6.45775 35.8712 -0 13.8304 -0 -12.05 -1.05459 4.92784 7.125 0 -0 13.1099 4.85462 -25.0299 
-0.047405 0.878525 1.65942 1.09147 -1.12751 -49.8132 -0 0 -0 -18.9895 -19.1309 -7.53347 -11.3807 48.9422 24.6988 -0.10303 -9.04191 -2.28653 -0.791097 -15.5187 -5.80056 -0 0 -0 28.3385 -8.78029 9.14356 3.4009 30.5528 -12.4066 -0.5432 -15.8044 0.638851 1.98316 23.9816 -9.3178 -1.45 5.76225 -0.413288 1.55287 1.34042 -0.618569 2.45603 -1.81727 -0.308155 -11.0524 -8.32604 -7.27205 5.16888 19.0323 -9.41624 2.11857 7.8692 -4.87381 -0 0 -0 -88.4107 22.1246 3.21592 16.9131 -4.6037 -30.2577 0 -2.5594 0 16.2357 7.28456 23.5296 -7.125 0 0 -8.39485 -1.38135 54.2773 -0 0 -0 87.2537 18.3659 -2.61899 -19.9639 -6.59537 36.2544 -0 14.7455 -0 -11.0638 -0.988659 5.04265 7.125 0 -0 13.9936 5.21969 -24.9455 
-0.05181 0.87634 1.66554 0.349782 -0.534861 -50.169 -0 0 -0 -17.7217 -20.0826 -8.01685 -10.0703 46.9535 22.9344 -0.111157 -9.7558 -2.41383 -1.18315 -18.8253 -7.12792 -0 0 -0 29.2883 -8.20208 9.1706 3.52736 31.0417 -12.6536 -0.506159 -16.5184 1.00665 2.28929 25.6104 -10.0476 -0.416342 6.26291 -0.301198 1.72644 1.34937 -0.405112 2.04497 -2.10509 -0.204938 -11.3213 -8.57687 -7.4607 5.36653 18.5696 -9.60884 2.1973 7.79594 -4.95299 -0 0 -0 -87.7912 22.6409 2.89702 17.1239 -4.72721 -30.6626 0 -2.5894 0 16.5243 7.3986 23.4634 -7.125 0 0 -8.10198 -1.33071 54.2655 -0 0 -0 87.1043 19.3542 -2.37414 -20.1855 -6.75813 36.7028 -0 15.308 -0 -10.2445 -1.02263 5.6395 7.125 0 -0 14.6705 5.65306 -24.3803 
-0.0567 0.874425 1.67351 0.740532 -1.93118 -50.7572 -0 0 -0 -19.165 -20.2176 -8.30071 -9.02481 45.1767 21.4828 0.112799 -11.0076 -1.31225 -1.31302 -19.779 -7.52084 -0 0 -0 27.4712 -7.5185 8.45219 3.7569 31.8982 -13.0932 -0.505684 -16.9155 1.1255 0.916417 16.6599 -6.25296 -0.759635 5.7919 0.0598053 0.811717 2.3172 0.0243199 1.25583 -0.8641 -0.00480055 -11.6094 -9.71407 -7.91926 5.85501 18.1406 -10.1033 2.27727 7.91831 -5.12641 -0 0 -0 -86.2494 23.1367 1.34804 17.3866 -4.88404 -31.1693 0 -1.9355 0 16.7824 7.38073 23.0719 -7.125 0 0 -7.89266 -1.24465 53.9052 -0 0 -0 87.1547 19.1883 -0.917159 -20.4133 -6.928 37.1655 -0 16.4311 -0 -9.21988 -1.04326 6.40027 7.125 0 -0 15.5059 6.2204 -23.6668 
-0.05713 0.86701 1.67072 -1.04116 1.65242 -50.0804 -0 0 -0 -14.4786 -24.3396 -9.89782 -8.41561 44.0497 20.6154 0.116941 -9.95092 -1.0303 -1.37221 -20.1954 -7.69403 -0 0 -0 33.0197 -8.5872 11.1306 4.00817 32.7943 -13.5629 -1.27111 -18.037 -1.31945 1.58118 21.5873 -8.28014 2.19184 7.15594 -0.242791 1.96437 1.90219 -0.149582 0.814707 -2.0479 -0.0949606 -11.3618 -10.2629 -8.0178 5.80275 17.3158 -10.1451 2.21212 7.73043 -5.10976 -0 0 -0 -85.1844 23.0026 0.214669 17.5711 -4.99599 -31.5261 0 -1.9594 0 16.6092 7.27491 23.0025 -7.125 0 0 -8.08532 -1.25984 53.7981 -0 0 -0 86.8625 20.1484 -0.00266319 -20.6124 -7.07904 37.5722 -0 15.816 -0 -9.46172 -1.11111 6.63685 7.125 0 -0 15.2589 6.19259 -23.4249 
-0.061195 0.86437 1.67625 -1.60324 2.06024 -50.4278 -0 0 -0 -13.6135 -25.0068 -10.196 -7.31029 41.8022 18.9929 0.439626 -10.5747 0.785847 -0.691091 -14.535 -5.4149 -0 0 -0 33.6548 -8.33452 10.9057 4.19538 33.4361 -13.9056 -1.25091 -18.4402 -1.06942 1.19401 18.9079 -7.1617 2.69376 7.70331 -0.274982 2.23467 2.01019 -0.135984 0.817638 -2.2407 -0.0936716 -11.5741 -9.96127 -7.94279 5.63659 16.2346 -9.94828 2.27652 7.3248 -5.03782 -0 0 -0 -84.9405 22.3446 -0.414958 17.7427 -5.10154 -31.859 0 -2.5138 0 16.2566 7.28457 23.501 -7.125 0 0 -8.37729 -1.3745 54.2515 -0 0 -0 86.2181 20.998 0.801852 -20.6429 -7.10234 37.6344 -0 16.0215 -0 -10.4074 -1.04674 5.67985 7.125 0 -0 14.5186 5.60523 -24.3348 
